<svg xmlns="http://www.w3.org/2000/svg" xmlns:xlink="http://www.w3.org/1999/xlink" width="6912" zoomAndPan="magnify" viewBox="0 0 5184 2592.000001" height="3456" preserveAspectRatio="xMidYMid meet" version="1.0"><defs><clipPath id="8a02ef4d5b"><path d="M 196.058594 149.917969 L 1437.386719 149.917969 L 1437.386719 1391.246094 L 196.058594 1391.246094 Z M 196.058594 149.917969 " clip-rule="nonzero"/></clipPath><clipPath id="de17882232"><path d="M 816.722656 149.917969 C 473.941406 149.917969 196.058594 427.796875 196.058594 770.582031 C 196.058594 1113.363281 473.941406 1391.246094 816.722656 1391.246094 C 1159.507812 1391.246094 1437.386719 1113.363281 1437.386719 770.582031 C 1437.386719 427.796875 1159.507812 149.917969 816.722656 149.917969 Z M 816.722656 149.917969 " clip-rule="nonzero"/></clipPath><clipPath id="6b6aa88426"><path d="M 2290.933594 1572.894531 L 3532.261719 1572.894531 L 3532.261719 2591 L 2290.933594 2591 Z M 2290.933594 1572.894531 " clip-rule="nonzero"/></clipPath><clipPath id="b84dd8c3bd"><path d="M 2911.597656 1572.894531 C 2568.8125 1572.894531 2290.933594 1850.777344 2290.933594 2193.558594 C 2290.933594 2536.34375 2568.8125 2814.222656 2911.597656 2814.222656 C 3254.382812 2814.222656 3532.261719 2536.34375 3532.261719 2193.558594 C 3532.261719 1850.777344 3254.382812 1572.894531 2911.597656 1572.894531 Z M 2911.597656 1572.894531 " clip-rule="nonzero"/></clipPath><clipPath id="ec18bc2d37"><path d="M 3832.097656 54.171875 L 5073.425781 54.171875 L 5073.425781 1295.5 L 3832.097656 1295.5 Z M 3832.097656 54.171875 " clip-rule="nonzero"/></clipPath><clipPath id="19445bde6f"><path d="M 4452.761719 54.171875 C 4109.976562 54.171875 3832.097656 332.050781 3832.097656 674.835938 C 3832.097656 1017.621094 4109.976562 1295.5 4452.761719 1295.5 C 4795.542969 1295.5 5073.425781 1017.621094 5073.425781 674.835938 C 5073.425781 332.050781 4795.542969 54.171875 4452.761719 54.171875 Z M 4452.761719 54.171875 " clip-rule="nonzero"/></clipPath></defs><path fill="#ffffff" d="M 1 0 L 5183 0 L 5183 2591 L 1 2591 Z M 1 0 " fill-opacity="1" fill-rule="nonzero"/><path fill="#ffffff" d="M 1 0 L 5183 0 L 5183 2591 L 1 2591 Z M 1 0 " fill-opacity="1" fill-rule="nonzero"/><g clip-path="url(#8a02ef4d5b)"><g clip-path="url(#de17882232)"><path fill="#c5d6c6" d="M 196.058594 149.917969 L 1437.386719 149.917969 L 1437.386719 1391.246094 L 196.058594 1391.246094 Z M 196.058594 149.917969 " fill-opacity="1" fill-rule="nonzero"/></g></g><g clip-path="url(#6b6aa88426)"><g clip-path="url(#b84dd8c3bd)"><path fill="#fff0b3" d="M 2290.933594 1572.894531 L 3532.261719 1572.894531 L 3532.261719 2814.222656 L 2290.933594 2814.222656 Z M 2290.933594 1572.894531 " fill-opacity="1" fill-rule="nonzero"/></g></g><g clip-path="url(#ec18bc2d37)"><g clip-path="url(#19445bde6f)"><path fill="#ffb2b2" d="M 3832.097656 54.171875 L 5073.425781 54.171875 L 5073.425781 1295.5 L 3832.097656 1295.5 Z M 3832.097656 54.171875 " fill-opacity="1" fill-rule="nonzero"/></g></g></svg>